<svg xmlns="http://www.w3.org/2000/svg" viewBox="0 0 250.18 36.84"><defs><style>.a{fill:#76767b;}</style></defs><path class="a" d="M57.89,21.64a1.69,1.69,0,0,0-.4,1.06A1.54,1.54,0,0,0,58,23.88a2,2,0,0,0,1.42.47,3.77,3.77,0,0,0,1.35-.3,11.07,11.07,0,0,0,1.71-.87V20.1a18,18,0,0,0-3.25.68A2.83,2.83,0,0,0,57.89,21.64Z" transform="translate(-4.83 -0.16)"/><path class="a" d="M118.73,20.46a9.44,9.44,0,0,0-1.16.32,2.84,2.84,0,0,0-1.35.86,1.71,1.71,0,0,0-.41,1.06,1.54,1.54,0,0,0,.53,1.18,2,2,0,0,0,1.42.47,3.77,3.77,0,0,0,1.35-.3,6.51,6.51,0,0,0,.78-.35,1.72,1.72,0,0,0,.93-1.53v0A1.72,1.72,0,0,0,118.73,20.46Z" transform="translate(-4.83 -0.16)"/><path class="a" d="M77.32,30.88c0,.57.47,1,1.4,1.34a11.38,11.38,0,0,0,3.61.48,12.67,12.67,0,0,0,2.83-.28,3.44,3.44,0,0,0,1.63-.68,1,1,0,0,0,.27-.72,1,1,0,0,0-.53-.85A7.25,7.25,0,0,0,84,29.58L79.07,29a.74.74,0,0,0-.57.16,5.4,5.4,0,0,0-.93.89A1.48,1.48,0,0,0,77.32,30.88Z" transform="translate(-4.83 -0.16)"/><path class="a" d="M81.31,13.23a2.38,2.38,0,0,0-1.86.82,3.3,3.3,0,0,0-.73,2.24,3,3,0,0,0,.71,2.07,2.28,2.28,0,0,0,1.41.75,2.59,2.59,0,0,0,2.3-.87,3,3,0,0,0,.65-2,3.36,3.36,0,0,0-.7-2.23A2.24,2.24,0,0,0,81.31,13.23Z" transform="translate(-4.83 -0.16)"/><path class="a" d="M26,7.8c-.92-.54-1.8-.59-3.52-.59H19.8a43.57,43.57,0,0,0,0,15.28,2.88,2.88,0,0,0,.09,1,.69.69,0,0,0,.41.36,5.37,5.37,0,0,0,1.31.1,7.51,7.51,0,0,0,4.06-1A5.89,5.89,0,0,0,28,20.1,10.78,10.78,0,0,0,29,15.28a11.76,11.76,0,0,0-.84-4.88A5.17,5.17,0,0,0,26,7.8Z" transform="translate(-4.83 -0.16)"/><path class="a" d="M165.52.16H9.32A4.49,4.49,0,0,0,4.83,4.65V32.52A4.49,4.49,0,0,0,9.32,37h156.2A4.49,4.49,0,0,0,170,32.52V4.65A4.49,4.49,0,0,0,165.52.16Zm-130,19.92a11.22,11.22,0,0,1-2.33,3.77,11.07,11.07,0,0,1-3.32,2.53,15,15,0,0,1-3.79,1,25.61,25.61,0,0,1-3.93.41H10.82l.85-3.4a3.55,3.55,0,0,0,1.41-.17,1.3,1.3,0,0,0,.55-.6,9,9,0,0,0,.14-1.46V8.8a9,9,0,0,0-.15-1.45,1,1,0,0,0-.49-.5,4.12,4.12,0,0,0-1.46-.16l-.38-1.45-.47-1.95H23.68a14.82,14.82,0,0,1,7,1.39A10.3,10.3,0,0,1,34.77,8.8a13.13,13.13,0,0,1,1.54,6.54A13.24,13.24,0,0,1,35.52,20.08Zm14.31,6.65a1.09,1.09,0,0,1-1.09,1.09H40.05A1.09,1.09,0,0,1,39,26.73V24.42h.93a4.55,4.55,0,0,0,1.17-.09.73.73,0,0,0,.38-.33c.08-.15.41-2.29.41-2.29a21.9,21.9,0,0,0,.38-6.05,1.1,1.1,0,0,0-1.09-1h-.59a1.09,1.09,0,0,1-1.09-1.09v-1.2a1.08,1.08,0,0,1,1-1.08c.58-.06,1.14-.13,1.69-.23a16.61,16.61,0,0,0,2.28-.55A9.13,9.13,0,0,0,45.76,10a1.22,1.22,0,0,1,.49-.12,1.08,1.08,0,0,1,1.06,1.33,35.86,35.86,0,0,0-.56,10.64A18.22,18.22,0,0,0,47.28,24a1.27,1.27,0,0,0,.37.33,4,4,0,0,0,1.23.11h.95Zm-1-19.63c-2.11,1.66-5.89,2.22-5.89,2.22-2-1.45-2.68-4.47-.51-5.57S48.76,3.32,50,1.54,50.89,5.43,48.78,7.1Zm22,18c0,1.17-2,3-2.87,3a6.6,6.6,0,0,1-2.76-.53A4.85,4.85,0,0,1,63.24,26a14.53,14.53,0,0,1-3.19,1.62,8.48,8.48,0,0,1-2.77.49,5.74,5.74,0,0,1-4.06-1.42,4.54,4.54,0,0,1-1.55-3.49A4.44,4.44,0,0,1,52.21,21a5,5,0,0,1,1.6-1.72A10.58,10.58,0,0,1,57.09,18a32.88,32.88,0,0,1,5.41-.82v-1.3a4.73,4.73,0,0,0-.19-1.6,1.66,1.66,0,0,0-.71-.73,2.55,2.55,0,0,0-1.26-.29,2.78,2.78,0,0,0-1.06.2,2,2,0,0,0-.75.49,4,4,0,0,0-.65,1.16,3.7,3.7,0,0,1-1.14,1.56,2.57,2.57,0,0,1-1.55.48,2.54,2.54,0,0,1-1.85-.71,2.34,2.34,0,0,1-.72-1.74,3.26,3.26,0,0,1,.74-2.09,7,7,0,0,1,2.93-2,12,12,0,0,1,4.4-.77,10,10,0,0,1,4.16.79,5.35,5.35,0,0,1,2.39,1.89,6.54,6.54,0,0,1,.67,3.35v6.29A5,5,0,0,0,68,23.66a1.12,1.12,0,0,0,.52.57,1.74,1.74,0,0,0,.9.25,4.59,4.59,0,0,0,1.32-.28Zm18.44-8.66a5.44,5.44,0,0,1-1,3,6.41,6.41,0,0,1-2.65,2.27,9.41,9.41,0,0,1-4.07.81,12.77,12.77,0,0,1-1.38-.08,11.38,11.38,0,0,1-1.4-.24,3.06,3.06,0,0,0-.72.58.81.81,0,0,0-.25.53c0,.36.38.59,1.13.7l7.27,1a9,9,0,0,1,4.7,1.73,4,4,0,0,1,1.44,3.09,4.54,4.54,0,0,1-1.09,2.93A7.78,7.78,0,0,1,87.68,35a19.29,19.29,0,0,1-6.23.86A19.53,19.53,0,0,1,76,35.21a6.89,6.89,0,0,1-3.07-1.62,2.81,2.81,0,0,1-.9-1.85,2.66,2.66,0,0,1,.68-1.8,6,6,0,0,1,1.49-1.15.76.76,0,0,0,0-1.3,3.76,3.76,0,0,1-.67-.54,2.72,2.72,0,0,1-.88-1.89A3.27,3.27,0,0,1,73.46,23,7.78,7.78,0,0,1,75,21.56a.76.76,0,0,0,.09-1.18,4.13,4.13,0,0,1-.62-.64,5.33,5.33,0,0,1-.85-1.61,6.13,6.13,0,0,1-.32-1.95,5.7,5.7,0,0,1,2.15-4.48,8.43,8.43,0,0,1,5.67-1.85,10.66,10.66,0,0,1,2.86.36,7.37,7.37,0,0,1,1.77.75.74.74,0,0,0,.93-.19,5.82,5.82,0,0,1,1.47-1.35,3.79,3.79,0,0,1,2-.55,2.22,2.22,0,0,1,1.64.6A2.13,2.13,0,0,1,92.36,11a1.94,1.94,0,0,1-.57,1.43,1.92,1.92,0,0,1-1.41.57H89.8l-.6,0a1.62,1.62,0,0,0-1,.35A5.92,5.92,0,0,1,89.22,16.42ZM108.12,15a2.52,2.52,0,0,1-2.05.89,3,3,0,0,1-.63,0,10.3,10.3,0,0,1-1.15-.35,2.87,2.87,0,0,0-.76-.14,2.67,2.67,0,0,0-1.07.35.78.78,0,0,0-.45.69v6.41a2.94,2.94,0,0,0,.14,1.14.75.75,0,0,0,.43.39,4.33,4.33,0,0,0,1.3.12l.24.86.53,1.77a.77.77,0,0,1-.77.77H94.57a.77.77,0,0,1-.76-.77v-.44l.9-2.19a4.09,4.09,0,0,0,1.21-.1.72.72,0,0,0,.36-.37,3.23,3.23,0,0,0,.13-1.18v-7.3a.78.78,0,0,0-.77-.77H94.57a.76.76,0,0,1-.76-.76V12a.76.76,0,0,1,.69-.76,18.81,18.81,0,0,0,5.13-1.36.67.67,0,0,1,.28-.06h.74a.77.77,0,0,1,.77.77.77.77,0,0,0,1.27.58,5.91,5.91,0,0,1,1.17-.81,4.25,4.25,0,0,1,2-.54,2.92,2.92,0,0,1,1.54.4,2.87,2.87,0,0,1,1.08,1.13,3.33,3.33,0,0,1,.39,1.58A3.09,3.09,0,0,1,108.12,15Zm21,10.1c0,.81-.56,2.75-1.36,2.89a8.73,8.73,0,0,1-1.5.14,6.56,6.56,0,0,1-2.76-.53,4.47,4.47,0,0,1-1.13-.73,1.67,1.67,0,0,0-1.92-.16,12.05,12.05,0,0,1-2.06.93,8.44,8.44,0,0,1-2.77.49,5.76,5.76,0,0,1-4.06-1.42A4.53,4.53,0,0,1,110,23.19a4.43,4.43,0,0,1,.53-2.16,5.1,5.1,0,0,1,1.6-1.72A10.66,10.66,0,0,1,115.42,18a32.58,32.58,0,0,1,5.4-.82v-1.3a4.48,4.48,0,0,0-.19-1.6,1.63,1.63,0,0,0-.7-.73,2.57,2.57,0,0,0-1.27-.29,2.69,2.69,0,0,0-1,.2,2,2,0,0,0-.76.49,4.26,4.26,0,0,0-.65,1.16,3.69,3.69,0,0,1-1.13,1.56,2.58,2.58,0,0,1-1.56.48,2.52,2.52,0,0,1-1.84-.71,2.31,2.31,0,0,1-.73-1.74,3.26,3.26,0,0,1,.74-2.09,7.09,7.09,0,0,1,2.94-2A11.92,11.92,0,0,1,119,9.85a10,10,0,0,1,4.16.79,5.35,5.35,0,0,1,2.39,1.89,6.53,6.53,0,0,1,.68,3.35v6.29a5.54,5.54,0,0,0,.12,1.49,1.15,1.15,0,0,0,.53.57,1.73,1.73,0,0,0,.89.25,4.59,4.59,0,0,0,1.32-.28Zm35.61.18a2.17,2.17,0,0,1-2.13,2.42l-7.3.15a.81.81,0,0,1-.81-.81v-1.8a.8.8,0,0,1,.77-.8,2.39,2.39,0,0,0,.66-.1.83.83,0,0,0,.43-.37,3.18,3.18,0,0,0,.23-1.12,27.69,27.69,0,0,0,.3-3.61,20.52,20.52,0,0,0-.54-4.25,1.32,1.32,0,0,0-.58-.62,2,2,0,0,0-1-.25,4,4,0,0,0-1.48.31,11.27,11.27,0,0,0-2,1.1c-.23.15-.63,1.35-.63,3.93,0,2.89,0,3.51,0,3.51a3,3,0,0,0,.21,1c.09.17.42.26.65.36a2.69,2.69,0,0,0,.6.08.81.81,0,0,1,.77.81V27a.81.81,0,0,1-.8.81h-8a.81.81,0,0,1-.81-.81v-1.8a.81.81,0,0,1,.77-.81,2.38,2.38,0,0,0,.69-.1.78.78,0,0,0,.4-.38,5.47,5.47,0,0,0,.25-.92,34.33,34.33,0,0,0,.2-3.67,11.25,11.25,0,0,0-.55-4.56,1.46,1.46,0,0,0-1.38-.68,4.89,4.89,0,0,0-1,.12,4.46,4.46,0,0,0-1.07.39l-1.26.65a1.57,1.57,0,0,0-.6.52,19.62,19.62,0,0,0-.22,4.45c0,1.56.25,3.22.25,3.3a1.23,1.23,0,0,0,.49.75,2.69,2.69,0,0,0,1.07.15h.47v1.89a1.57,1.57,0,0,1-1.16,1.51H134c-2.39,0-2.55-2.51-2.55-3v-.44h.68a4.59,4.59,0,0,0,1.36-.11.82.82,0,0,0,.42-.4,8.05,8.05,0,0,0,.14-1.28s.61-4.64,0-7.08a.81.81,0,0,0-.81-.81h-1a.81.81,0,0,1-.81-.81V12.07a.8.8,0,0,1,.71-.8,19.16,19.16,0,0,0,5.1-1.36.73.73,0,0,1,.3-.06h.69a.81.81,0,0,1,.81.81.8.8,0,0,0,1.23.68,10.82,10.82,0,0,1,1.88-.91,9.15,9.15,0,0,1,3.21-.58,6.28,6.28,0,0,1,2,.31,5.1,5.1,0,0,1,1.6.8,4.72,4.72,0,0,1,.72.7.82.82,0,0,0,1.11.16,11.55,11.55,0,0,1,2.61-1.4,9.2,9.2,0,0,1,3.18-.57,6.16,6.16,0,0,1,2.54.51A5,5,0,0,1,161,11.74a4.39,4.39,0,0,1,.92,1.89c.23,1.12-.22,3-.22,5.34s.1,3.79.1,3.79a2.13,2.13,0,0,0,.39,1.15.91.91,0,0,0,.45.41,4.41,4.41,0,0,0,1.28.1h.77Z" transform="translate(-4.83 -0.16)"/><path class="a" d="M181.65,13.84v8.43a8.89,8.89,0,0,0,.09,1.39,1.74,1.74,0,0,0,.36.87,1.27,1.27,0,0,0,.73.44,5.22,5.22,0,0,0,1.23.11c.33,0,.65,0,.93,0a4.36,4.36,0,0,0,.83-.13v3.21l-1.19.11c-.4,0-.81.05-1.22.05a15.24,15.24,0,0,1-2.93-.24,4.09,4.09,0,0,1-1.95-.88,3.54,3.54,0,0,1-1.06-1.75,10.16,10.16,0,0,1-.32-2.83V13.84h-2.7V10.6h2.7V6.46h4.5V10.6h4.28v3.24Z" transform="translate(-4.83 -0.16)"/><path class="a" d="M197.45,10.28a17.44,17.44,0,0,1,4,.39,7.33,7.33,0,0,1,2.61,1.1,3.91,3.91,0,0,1,1.4,1.76,6.34,6.34,0,0,1,.41,2.35V28.1h-4l-.47-2.24A5.07,5.07,0,0,1,199,27.71a10.59,10.59,0,0,1-4,.71q-6.66,0-6.66-5.28,0-3.08,2-4.32a11.2,11.2,0,0,1,5.83-1.25h5.22v-.78a4.62,4.62,0,0,0-.18-1.36,2,2,0,0,0-.66-1,3.38,3.38,0,0,0-1.35-.59,11,11,0,0,0-2.2-.19c-.69,0-1.39,0-2.09.1s-1.39.15-2.08.26V10.57c.74-.11,1.53-.18,2.35-.23S196.75,10.28,197.45,10.28Zm-1.55,15a8,8,0,0,0,3.46-.68,4.34,4.34,0,0,0,2-1.82v-2.3h-4.6a7,7,0,0,0-3.08.5,2.11,2.11,0,0,0-1,2.06,2,2,0,0,0,.74,1.69A4.19,4.19,0,0,0,195.9,25.25Z" transform="translate(-4.83 -0.16)"/><path class="a" d="M216.82,28.29q-2.88,0-4-1A4.09,4.09,0,0,1,211.6,24V3.47h4.5V23a2.38,2.38,0,0,0,.38,1.62,1.78,1.78,0,0,0,1.31.39,5.23,5.23,0,0,0,1.19-.13V28.1A11.06,11.06,0,0,1,216.82,28.29Z" transform="translate(-4.83 -0.16)"/><path class="a" d="M239.25,28.1H233.7l-5.9-7.68h-.94V28.1h-4.5V3.47h4.5V17.28H228l5.61-6.68h5.33l-7.34,8.13Z" transform="translate(-4.83 -0.16)"/><path class="a" d="M247.31,28.29c-1.08,0-2.16-.05-3.24-.14a20.63,20.63,0,0,1-2.77-.41v-3.4a19.79,19.79,0,0,0,2.86.57,22.66,22.66,0,0,0,2.93.21,6.88,6.88,0,0,0,2.77-.42,1.65,1.65,0,0,0,.9-1.66,2.73,2.73,0,0,0-.16-1,1.43,1.43,0,0,0-.59-.69,4.2,4.2,0,0,0-1.21-.52c-.51-.15-1.18-.31-2-.49a14,14,0,0,1-2.59-.74,5.21,5.21,0,0,1-1.6-1,3,3,0,0,1-.83-1.36,7,7,0,0,1-.23-1.9,4.43,4.43,0,0,1,1.76-3.71q1.77-1.33,5.73-1.34a26.63,26.63,0,0,1,3,.16,10.59,10.59,0,0,1,2.18.42L254,14a12.24,12.24,0,0,0-2.14-.46,18.68,18.68,0,0,0-2.68-.19,6.13,6.13,0,0,0-2.64.4,1.55,1.55,0,0,0-.78,1.51,2.16,2.16,0,0,0,.14.84,1.24,1.24,0,0,0,.54.55,5.08,5.08,0,0,0,1.1.42c.47.13,1.09.29,1.86.46a18.91,18.91,0,0,1,2.7.78,5.33,5.33,0,0,1,1.72,1,3.22,3.22,0,0,1,.92,1.45,7.07,7.07,0,0,1,.27,2.09,4.48,4.48,0,0,1-2,4.17A11.09,11.09,0,0,1,247.31,28.29Z" transform="translate(-4.83 -0.16)"/></svg>